<?xml version="1.0" encoding="UTF-8" standalone="no"?>
<!-- Created with Inkscape (http://www.inkscape.org/) -->

<svg
   xmlns:dc="http://purl.org/dc/elements/1.1/"
   xmlns:cc="http://creativecommons.org/ns#"
   xmlns:rdf="http://www.w3.org/1999/02/22-rdf-syntax-ns#"
   xmlns:svg="http://www.w3.org/2000/svg"
   xmlns="http://www.w3.org/2000/svg"
   xmlns:sodipodi="http://sodipodi.sourceforge.net/DTD/sodipodi-0.dtd"
   xmlns:inkscape="http://www.inkscape.org/namespaces/inkscape"
   width="160"
   height="115"
   id="svg8538"
   version="1.1"
   inkscape:version="0.48.2 r9819"
   sodipodi:docname="arrow-pad.svg">
  <defs
     id="defs8540" />
  <sodipodi:namedview
     id="base"
     pagecolor="#ffffff"
     bordercolor="#666666"
     borderopacity="1.0"
     inkscape:pageopacity="0.0"
     inkscape:pageshadow="2"
     inkscape:zoom="1.4"
     inkscape:cx="260.31693"
     inkscape:cy="147.54098"
     inkscape:document-units="px"
     inkscape:current-layer="layer1"
     showgrid="false"
     units="px"
     inkscape:window-width="1390"
     inkscape:window-height="804"
     inkscape:window-x="20"
     inkscape:window-y="20"
     inkscape:window-maximized="0" />
  <metadata
     id="metadata8543">
    <rdf:RDF>
      <cc:Work
         rdf:about="">
        <dc:format>image/svg+xml</dc:format>
        <dc:type
           rdf:resource="http://purl.org/dc/dcmitype/StillImage" />
        <dc:title />
      </cc:Work>
    </rdf:RDF>
  </metadata>
  <g
     inkscape:label="Layer 1"
     inkscape:groupmode="layer"
     id="layer1"
     transform="translate(0,-937.36)">
    <path
       style="fill:none;stroke:#000000;stroke-width:1.5;stroke-linecap:square;stroke-linejoin:miter;stroke-miterlimit:4;stroke-opacity:1"
       d="m 68.035721,955.46692 22.5,0 c 4.155,0 7.5,3.345 7.5,7.5 l 0,22.5 c 0,4.155 -3.345,7.5 -7.5,7.5 l -22.5,0 c -4.155,0 -7.5,-3.345 -7.5,-7.5 l 0,-22.5 c 0,-4.155 3.345,-7.5 7.5,-7.5 z"
       id="rect47013" />
    <path
       style="fill:none;stroke:#000000;stroke-width:1.5;stroke-linecap:square;stroke-linejoin:miter;stroke-miterlimit:4;stroke-opacity:1"
       d="m 26.035721,997.46692 22.5,0 c 4.155,0 7.5,3.34498 7.5,7.49998 l 0,22.5 c 0,4.155 -3.345,7.5 -7.5,7.5 l -22.5,0 c -4.155,0 -7.5,-3.345 -7.5,-7.5 l 0,-22.5 c 0,-4.155 3.345,-7.49998 7.5,-7.49998 z"
       id="rect47015" />
    <path
       style="fill:none;stroke:#000000;stroke-width:1.5;stroke-linecap:square;stroke-linejoin:miter;stroke-miterlimit:4;stroke-opacity:1"
       d="m 68.035721,997.46692 22.5,0 c 4.155,0 7.5,3.34498 7.5,7.49998 l 0,22.5 c 0,4.155 -3.345,7.5 -7.5,7.5 l -22.5,0 c -4.155,0 -7.5,-3.345 -7.5,-7.5 l 0,-22.5 c 0,-4.155 3.345,-7.49998 7.5,-7.49998 z"
       id="rect47017" />
    <path
       style="fill:none;stroke:#000000;stroke-width:1.5;stroke-linecap:square;stroke-linejoin:miter;stroke-miterlimit:4;stroke-opacity:1"
       d="m 110.03572,997.46692 22.5,0 c 4.155,0 7.5,3.34498 7.5,7.49998 l 0,22.5 c 0,4.155 -3.345,7.5 -7.5,7.5 l -22.5,0 c -4.155,0 -7.5,-3.345 -7.5,-7.5 l 0,-22.5 c 0,-4.155 3.345,-7.49998 7.5,-7.49998 z"
       id="rect47019" />
    <g
       transform="matrix(1.5,0,0,1.5,-19.92032,267.88383)"
       style="font-size:6.66666651px;font-style:normal;font-variant:normal;font-weight:bold;font-stretch:condensed;text-align:center;line-height:125%;letter-spacing:0px;word-spacing:0px;text-anchor:middle;fill:#000000;fill-opacity:1;stroke:none;font-family:Arial Narrow;-inkscape-font-specification:Arial Narrow Bold Condensed"
       id="flowRoot47388">
      <path
         d="m 62.169271,468.45058 -0.859375,0 -0.341797,-1.08399 -1.5625,0 -0.322265,1.08399 -0.839844,0 1.523437,-4.77214 0.836589,0 1.565755,4.77214 m -1.455078,-1.88802 -0.53711,-1.77084 -0.530598,1.77084 1.067708,0"
         style=""
         id="path3323" />
      <path
         d="m 63.302083,468.45058 -0.751953,0 0,-3.45704 0.696615,0 0,0.49154 c 0.119356,-0.23003 0.225693,-0.38194 0.31901,-0.45573 0.09548,-0.076 0.205077,-0.11393 0.328776,-0.11393 0.171439,0 0.335285,0.0575 0.491537,0.17253 l -0.234375,0.79752 c -0.1237,-0.0998 -0.240887,-0.14973 -0.351563,-0.14974 -0.104168,1e-5 -0.196399,0.0391 -0.276692,0.11719 -0.07813,0.076 -0.13455,0.21485 -0.169271,0.41667 -0.03472,0.20182 -0.05208,0.57291 -0.05208,1.11328 l 0,1.06771"
         style=""
         id="path3325" />
      <path
         d="m 65.424479,468.45058 -0.751953,0 0,-3.45704 0.696614,0 0,0.49154 c 0.119357,-0.23003 0.225694,-0.38194 0.319011,-0.45573 0.09548,-0.076 0.205076,-0.11393 0.328776,-0.11393 0.171439,0 0.335284,0.0575 0.491536,0.17253 l -0.234375,0.79752 c -0.123699,-0.0998 -0.240887,-0.14973 -0.351562,-0.14974 -0.104168,1e-5 -0.196399,0.0391 -0.276693,0.11719 -0.07813,0.076 -0.13455,0.21485 -0.169271,0.41667 -0.03472,0.20182 -0.05208,0.57291 -0.05208,1.11328 l 0,1.06771"
         style=""
         id="path3327" />
      <path
         d="m 66.651692,466.67323 c 0,-0.33854 0.06727,-0.6467 0.201823,-0.92448 0.134548,-0.27777 0.310329,-0.4861 0.527344,-0.625 0.217013,-0.13888 0.461153,-0.20833 0.732422,-0.20833 0.455727,0 0.813799,0.17904 1.074218,0.53711 0.260414,0.3559 0.390622,0.77257 0.390625,1.25 -3e-6,0.3559 -0.06836,0.67708 -0.205078,0.96354 -0.134551,0.28646 -0.312502,0.50239 -0.533854,0.64779 -0.219186,0.14323 -0.460071,0.21484 -0.722656,0.21484 -0.421008,0 -0.7704,-0.16059 -1.048177,-0.48177 -0.277778,-0.32118 -0.416667,-0.77908 -0.416667,-1.3737 m 0.768229,0.0488 c -10e-7,0.34939 0.06836,0.61415 0.205079,0.79427 0.136717,0.17795 0.301647,0.26693 0.494791,0.26693 0.1888,0 0.350476,-0.0901 0.485026,-0.27018 0.134547,-0.18012 0.201821,-0.44597 0.201823,-0.79753 -2e-6,-0.34288 -0.06836,-0.60438 -0.205078,-0.78451 -0.136721,-0.18011 -0.300566,-0.27017 -0.491536,-0.27018 -0.188804,10e-6 -0.351564,0.0901 -0.488282,0.27018 -0.134549,0.18013 -0.201824,0.4438 -0.201823,0.79102"
         style=""
         id="path3329" />
      <path
         d="m 70.704427,468.45058 -0.898438,-3.45704 0.729167,0 0.530599,2.26563 0.488281,-2.26563 0.722657,0 0.472005,2.26563 0.543619,-2.26563 0.738933,0 -0.911459,3.45704 -0.719401,0 -0.488281,-2.22331 -0.481771,2.22331 -0.725911,0"
         style=""
         id="path3331" />
      <path
         d="m 62.885417,472.01178 0.78776,0 0,2.58464 c -1e-6,0.40148 0.0098,0.66298 0.0293,0.7845 0.03472,0.21051 0.117186,0.37327 0.247396,0.48829 0.132377,0.11501 0.305988,0.17252 0.520833,0.17252 0.18229,0 0.330944,-0.0401 0.445964,-0.12044 0.115015,-0.0825 0.193139,-0.19531 0.234375,-0.33854 0.0434,-0.1454 0.0651,-0.45573 0.0651,-0.93099 l 0,-2.63998 0.791015,0 0,2.50651 c -3e-6,0.6402 -0.03472,1.10352 -0.104166,1.38998 -0.06728,0.28429 -0.221358,0.51541 -0.46224,0.69336 -0.238718,0.17578 -0.554473,0.26367 -0.947265,0.26367 -0.407988,0 -0.726998,-0.0727 -0.957032,-0.2181 -0.227865,-0.14757 -0.39388,-0.35373 -0.498046,-0.61849 -0.101997,-0.26692 -0.152996,-0.75738 -0.152995,-1.47135 l 0,-2.54558"
         style=""
         id="path3333" />
      <path
         d="m 66.811198,473.32689 0.69987,0 0,0.50781 c 0.09549,-0.18229 0.221353,-0.32552 0.377604,-0.42969 0.156248,-0.10416 0.324434,-0.15624 0.504557,-0.15625 0.323349,10e-6 0.601126,0.15409 0.833334,0.46224 0.234371,0.30817 0.351559,0.74545 0.351562,1.31185 -3e-6,0.59462 -0.117191,1.05035 -0.351562,1.36719 -0.234378,0.31467 -0.513241,0.472 -0.836589,0.472 -0.149741,0 -0.289715,-0.0358 -0.419922,-0.10742 -0.128039,-0.0738 -0.263673,-0.20616 -0.406901,-0.39713 l 0,1.74153 -0.751953,0 0,-4.77213 m 0.742187,1.66992 c -1e-6,0.39063 0.06293,0.67817 0.188803,0.86263 0.128036,0.18446 0.282116,0.27669 0.462239,0.27669 0.171439,0 0.315753,-0.0846 0.432943,-0.2539 0.117185,-0.17144 0.175779,-0.45031 0.175781,-0.83659 -2e-6,-0.36675 -0.06077,-0.63693 -0.182292,-0.81055 -0.119359,-0.17578 -0.265844,-0.26367 -0.439453,-0.26367 -0.182293,0 -0.334203,0.0857 -0.455729,0.25716 -0.121529,0.16927 -0.182293,0.42535 -0.182292,0.76823"
         style=""
         id="path3335" />
    </g>
    <g
       transform="matrix(1.5,0,0,1.5,-61.92032,310.81158)"
       style="font-size:6.66666651px;font-style:normal;font-variant:normal;font-weight:bold;font-stretch:condensed;text-align:center;line-height:125%;letter-spacing:0px;word-spacing:0px;text-anchor:middle;fill:#000000;fill-opacity:1;stroke:none;font-family:Arial Narrow;-inkscape-font-specification:Arial Narrow Bold Condensed"
       id="flowRoot47402">
      <path
         d="m 62.169271,468.45058 -0.859375,0 -0.341797,-1.08399 -1.5625,0 -0.322265,1.08399 -0.839844,0 1.523437,-4.77214 0.836589,0 1.565755,4.77214 m -1.455078,-1.88802 -0.53711,-1.77084 -0.530598,1.77084 1.067708,0"
         style=""
         id="path3304" />
      <path
         d="m 63.302083,468.45058 -0.751953,0 0,-3.45704 0.696615,0 0,0.49154 c 0.119356,-0.23003 0.225693,-0.38194 0.31901,-0.45573 0.09548,-0.076 0.205077,-0.11393 0.328776,-0.11393 0.171439,0 0.335285,0.0575 0.491537,0.17253 l -0.234375,0.79752 c -0.1237,-0.0998 -0.240887,-0.14973 -0.351563,-0.14974 -0.104168,1e-5 -0.196399,0.0391 -0.276692,0.11719 -0.07813,0.076 -0.13455,0.21485 -0.169271,0.41667 -0.03472,0.20182 -0.05208,0.57291 -0.05208,1.11328 l 0,1.06771"
         style=""
         id="path3306" />
      <path
         d="m 65.424479,468.45058 -0.751953,0 0,-3.45704 0.696614,0 0,0.49154 c 0.119357,-0.23003 0.225694,-0.38194 0.319011,-0.45573 0.09548,-0.076 0.205076,-0.11393 0.328776,-0.11393 0.171439,0 0.335284,0.0575 0.491536,0.17253 l -0.234375,0.79752 c -0.123699,-0.0998 -0.240887,-0.14973 -0.351562,-0.14974 -0.104168,1e-5 -0.196399,0.0391 -0.276693,0.11719 -0.07813,0.076 -0.13455,0.21485 -0.169271,0.41667 -0.03472,0.20182 -0.05208,0.57291 -0.05208,1.11328 l 0,1.06771"
         style=""
         id="path3308" />
      <path
         d="m 66.651692,466.67323 c 0,-0.33854 0.06727,-0.6467 0.201823,-0.92448 0.134548,-0.27777 0.310329,-0.4861 0.527344,-0.625 0.217013,-0.13888 0.461153,-0.20833 0.732422,-0.20833 0.455727,0 0.813799,0.17904 1.074218,0.53711 0.260414,0.3559 0.390622,0.77257 0.390625,1.25 -3e-6,0.3559 -0.06836,0.67708 -0.205078,0.96354 -0.134551,0.28646 -0.312502,0.50239 -0.533854,0.64779 -0.219186,0.14323 -0.460071,0.21484 -0.722656,0.21484 -0.421008,0 -0.7704,-0.16059 -1.048177,-0.48177 -0.277778,-0.32118 -0.416667,-0.77908 -0.416667,-1.3737 m 0.768229,0.0488 c -10e-7,0.34939 0.06836,0.61415 0.205079,0.79427 0.136717,0.17795 0.301647,0.26693 0.494791,0.26693 0.1888,0 0.350476,-0.0901 0.485026,-0.27018 0.134547,-0.18012 0.201821,-0.44597 0.201823,-0.79753 -2e-6,-0.34288 -0.06836,-0.60438 -0.205078,-0.78451 -0.136721,-0.18011 -0.300566,-0.27017 -0.491536,-0.27018 -0.188804,10e-6 -0.351564,0.0901 -0.488282,0.27018 -0.134549,0.18013 -0.201824,0.4438 -0.201823,0.79102"
         style=""
         id="path3310" />
      <path
         d="m 70.704427,468.45058 -0.898438,-3.45704 0.729167,0 0.530599,2.26563 0.488281,-2.26563 0.722657,0 0.472005,2.26563 0.543619,-2.26563 0.738933,0 -0.911459,3.45704 -0.719401,0 -0.488281,-2.22331 -0.481771,2.22331 -0.725911,0"
         style=""
         id="path3312" />
      <path
         d="m 61.541016,476.78392 0,-4.73307 0.78776,0 0,3.92903 1.966146,0 0,0.80404 -2.753906,0"
         style=""
         id="path3314" />
      <path
         d="m 66.505208,475.68366 0.745443,0.15299 c -0.09983,0.34723 -0.254994,0.60547 -0.465495,0.77474 -0.210505,0.1671 -0.466582,0.25065 -0.768229,0.25065 -0.418838,0 -0.742188,-0.13997 -0.970052,-0.41992 -0.269098,-0.32552 -0.403646,-0.78125 -0.403646,-1.36718 0,-0.57726 0.135633,-1.0395 0.406901,-1.38672 0.230034,-0.29297 0.527343,-0.43945 0.891927,-0.43946 0.405814,10e-6 0.723739,0.14975 0.953776,0.44922 0.264754,0.34289 0.397133,0.84853 0.397136,1.51693 l -0.0033,0.10417 -1.878255,0 c 0.0043,0.27343 0.0651,0.48502 0.182292,0.63476 0.119356,0.14974 0.262585,0.22461 0.429687,0.22461 0.240884,0 0.401474,-0.16493 0.481771,-0.49479 m 0.04232,-0.92448 c -0.0065,-0.26909 -0.06402,-0.47092 -0.172526,-0.60547 -0.108509,-0.13671 -0.237632,-0.20507 -0.38737,-0.20508 -0.158421,1e-5 -0.291885,0.0705 -0.40039,0.21159 -0.110679,0.14323 -0.164932,0.34289 -0.162761,0.59896 l 1.123047,0"
         style=""
         id="path3316" />
      <path
         d="m 67.579427,473.32689 0.416667,0 0,-0.26042 c -10e-7,-0.31466 0.0293,-0.54253 0.08789,-0.68359 0.06076,-0.14106 0.157335,-0.25173 0.289714,-0.33203 0.134547,-0.0803 0.299478,-0.12044 0.494792,-0.12045 0.212672,10e-6 0.421005,0.0391 0.624999,0.11719 l -0.09766,0.63802 c -0.121529,-0.0347 -0.237632,-0.0521 -0.348307,-0.0521 -0.106338,0 -0.183378,0.0304 -0.23112,0.0911 -0.04774,0.0608 -0.07162,0.18013 -0.07161,0.35808 l 0,0.24414 0.559895,0 0,0.7194 -0.559895,0 0,2.73763 -0.748698,0 0,-2.73763 -0.416667,0 0,-0.7194"
         style=""
         id="path3318" />
      <path
         d="m 71.026692,473.32689 0,0.72917 -0.511067,0 0,1.39322 c -10e-7,0.30165 0.0076,0.47635 0.02279,0.52409 0.03038,0.0868 0.09223,0.13021 0.185547,0.13021 0.06944,0 0.169269,-0.0293 0.299479,-0.0879 l 0.0651,0.70964 c -0.173612,0.0911 -0.37001,0.13671 -0.589192,0.13671 -0.190973,0 -0.343968,-0.0456 -0.458985,-0.13671 -0.115018,-0.0911 -0.192057,-0.22244 -0.231119,-0.39388 -0.03038,-0.12587 -0.04557,-0.38195 -0.04557,-0.76823 l 0,-1.50716 -0.345052,0 0,-0.72917 0.345052,0 0,-0.68685 0.751953,-0.53385 0,1.2207 0.511067,0"
         style=""
         id="path3320" />
    </g>
    <g
       transform="matrix(1.5,0,0,1.5,-19.92032,310.81158)"
       style="font-size:6.66666651px;font-style:normal;font-variant:normal;font-weight:bold;font-stretch:condensed;text-align:center;line-height:125%;letter-spacing:0px;word-spacing:0px;text-anchor:middle;fill:#000000;fill-opacity:1;stroke:none;font-family:Arial Narrow;-inkscape-font-specification:Arial Narrow Bold Condensed"
       id="flowRoot47412">
      <path
         d="m 62.169271,468.45058 -0.859375,0 -0.341797,-1.08399 -1.5625,0 -0.322265,1.08399 -0.839844,0 1.523437,-4.77214 0.836589,0 1.565755,4.77214 m -1.455078,-1.88802 -0.53711,-1.77084 -0.530598,1.77084 1.067708,0"
         style=""
         id="path3285" />
      <path
         d="m 63.302083,468.45058 -0.751953,0 0,-3.45704 0.696615,0 0,0.49154 c 0.119356,-0.23003 0.225693,-0.38194 0.31901,-0.45573 0.09548,-0.076 0.205077,-0.11393 0.328776,-0.11393 0.171439,0 0.335285,0.0575 0.491537,0.17253 l -0.234375,0.79752 c -0.1237,-0.0998 -0.240887,-0.14973 -0.351563,-0.14974 -0.104168,1e-5 -0.196399,0.0391 -0.276692,0.11719 -0.07813,0.076 -0.13455,0.21485 -0.169271,0.41667 -0.03472,0.20182 -0.05208,0.57291 -0.05208,1.11328 l 0,1.06771"
         style=""
         id="path3287" />
      <path
         d="m 65.424479,468.45058 -0.751953,0 0,-3.45704 0.696614,0 0,0.49154 c 0.119357,-0.23003 0.225694,-0.38194 0.319011,-0.45573 0.09548,-0.076 0.205076,-0.11393 0.328776,-0.11393 0.171439,0 0.335284,0.0575 0.491536,0.17253 l -0.234375,0.79752 c -0.123699,-0.0998 -0.240887,-0.14973 -0.351562,-0.14974 -0.104168,1e-5 -0.196399,0.0391 -0.276693,0.11719 -0.07813,0.076 -0.13455,0.21485 -0.169271,0.41667 -0.03472,0.20182 -0.05208,0.57291 -0.05208,1.11328 l 0,1.06771"
         style=""
         id="path3289" />
      <path
         d="m 66.651692,466.67323 c 0,-0.33854 0.06727,-0.6467 0.201823,-0.92448 0.134548,-0.27777 0.310329,-0.4861 0.527344,-0.625 0.217013,-0.13888 0.461153,-0.20833 0.732422,-0.20833 0.455727,0 0.813799,0.17904 1.074218,0.53711 0.260414,0.3559 0.390622,0.77257 0.390625,1.25 -3e-6,0.3559 -0.06836,0.67708 -0.205078,0.96354 -0.134551,0.28646 -0.312502,0.50239 -0.533854,0.64779 -0.219186,0.14323 -0.460071,0.21484 -0.722656,0.21484 -0.421008,0 -0.7704,-0.16059 -1.048177,-0.48177 -0.277778,-0.32118 -0.416667,-0.77908 -0.416667,-1.3737 m 0.768229,0.0488 c -10e-7,0.34939 0.06836,0.61415 0.205079,0.79427 0.136717,0.17795 0.301647,0.26693 0.494791,0.26693 0.1888,0 0.350476,-0.0901 0.485026,-0.27018 0.134547,-0.18012 0.201821,-0.44597 0.201823,-0.79753 -2e-6,-0.34288 -0.06836,-0.60438 -0.205078,-0.78451 -0.136721,-0.18011 -0.300566,-0.27017 -0.491536,-0.27018 -0.188804,10e-6 -0.351564,0.0901 -0.488282,0.27018 -0.134549,0.18013 -0.201824,0.4438 -0.201823,0.79102"
         style=""
         id="path3291" />
      <path
         d="m 70.704427,468.45058 -0.898438,-3.45704 0.729167,0 0.530599,2.26563 0.488281,-2.26563 0.722657,0 0.472005,2.26563 0.543619,-2.26563 0.738933,0 -0.911459,3.45704 -0.719401,0 -0.488281,-2.22331 -0.481771,2.22331 -0.725911,0"
         style=""
         id="path3293" />
      <path
         d="m 59.086589,472.01178 1.442057,0 c 0.364581,1e-5 0.639103,0.0412 0.823568,0.1237 0.186629,0.0803 0.35807,0.21702 0.514323,0.41016 0.156246,0.19314 0.278859,0.4438 0.367838,0.75195 0.08897,0.30816 0.13346,0.69119 0.133464,1.14909 -4e-6,0.41233 -0.04666,0.77149 -0.139974,1.07747 -0.09332,0.30382 -0.211592,0.54471 -0.354818,0.72266 -0.143232,0.17795 -0.316843,0.3125 -0.520833,0.40365 -0.201826,0.089 -0.462242,0.13346 -0.78125,0.13346 l -1.484375,0 0,-4.77214 m 0.78776,0.8073 0,3.1608 0.592448,0 c 0.253904,0 0.437281,-0.0239 0.55013,-0.0716 0.115015,-0.0477 0.208331,-0.11936 0.279948,-0.21485 0.07378,-0.0976 0.134546,-0.25064 0.182292,-0.45898 0.04774,-0.20833 0.07161,-0.48285 0.07161,-0.82357 -2e-6,-0.35373 -0.02496,-0.63259 -0.07487,-0.83659 -0.04775,-0.20399 -0.123701,-0.36458 -0.227865,-0.48177 -0.101999,-0.11718 -0.226782,-0.19422 -0.374349,-0.23112 -0.110679,-0.0282 -0.324438,-0.0423 -0.641276,-0.0423 l -0.358073,0"
         style=""
         id="path3295" />
      <path
         d="m 62.85612,475.00658 c 0,-0.33854 0.06727,-0.6467 0.201823,-0.92448 0.134548,-0.27778 0.310329,-0.48611 0.527344,-0.625 0.217012,-0.13889 0.461153,-0.20833 0.732421,-0.20834 0.455727,10e-6 0.8138,0.17904 1.074219,0.53711 0.260414,0.35591 0.390622,0.77257 0.390625,1.25 -3e-6,0.35591 -0.06836,0.67709 -0.205078,0.96354 -0.134551,0.28646 -0.312503,0.50239 -0.533854,0.64779 -0.219186,0.14323 -0.460071,0.21484 -0.722656,0.21484 -0.421009,0 -0.770401,-0.16059 -1.048177,-0.48177 -0.277779,-0.32118 -0.416667,-0.77907 -0.416667,-1.37369 m 0.768229,0.0488 c -1e-6,0.3494 0.06836,0.61415 0.205078,0.79427 0.136718,0.17796 0.301648,0.26693 0.494792,0.26693 0.1888,0 0.350475,-0.0901 0.485026,-0.27018 0.134546,-0.18012 0.20182,-0.44596 0.201823,-0.79753 -3e-6,-0.34288 -0.06836,-0.60438 -0.205078,-0.7845 -0.136721,-0.18012 -0.300566,-0.27018 -0.491537,-0.27018 -0.188803,0 -0.351564,0.0901 -0.488281,0.27018 -0.13455,0.18012 -0.201824,0.44379 -0.201823,0.79101"
         style=""
         id="path3297" />
      <path
         d="m 66.908854,476.78392 -0.898437,-3.45703 0.729166,0 0.530599,2.26562 0.488282,-2.26562 0.722656,0 0.472005,2.26562 0.54362,-2.26562 0.738932,0 -0.911458,3.45703 -0.719401,0 -0.488282,-2.22331 -0.48177,2.22331 -0.725912,0"
         style=""
         id="path3299" />
      <path
         d="m 73.214192,476.78392 -0.751953,0 0,-1.76432 c -2e-6,-0.35373 -0.01411,-0.58919 -0.04232,-0.70638 -0.02821,-0.11719 -0.08138,-0.20725 -0.159505,-0.27019 -0.07596,-0.0629 -0.162762,-0.0944 -0.260417,-0.0944 -0.125869,1e-5 -0.239801,0.0412 -0.341796,0.1237 -0.101998,0.0803 -0.173613,0.19206 -0.214844,0.33529 -0.04123,0.14323 -0.06185,0.41341 -0.06185,0.81054 l 0,1.56576 -0.751953,0 0,-3.45703 0.696614,0 0,0.50781 c 0.123697,-0.19531 0.262586,-0.34179 0.416667,-0.43945 0.156248,-0.0976 0.328774,-0.14648 0.517578,-0.14649 0.219182,10e-6 0.403644,0.0575 0.553386,0.17253 0.151907,0.11285 0.256073,0.25933 0.3125,0.43945 0.05859,0.17796 0.08789,0.4362 0.08789,0.77474 l 0,2.14844"
         style=""
         id="path3301" />
    </g>
    <g
       transform="matrix(1.5,0,0,1.5,22.07968,309.81793)"
       style="font-size:6.66666651px;font-style:normal;font-variant:normal;font-weight:bold;font-stretch:condensed;text-align:center;line-height:125%;letter-spacing:0px;word-spacing:0px;text-anchor:middle;fill:#000000;fill-opacity:1;stroke:none;font-family:Arial Narrow;-inkscape-font-specification:Arial Narrow Bold Condensed"
       id="flowRoot47422">
      <path
         d="m 62.169271,468.45058 -0.859375,0 -0.341797,-1.08399 -1.5625,0 -0.322265,1.08399 -0.839844,0 1.523437,-4.77214 0.836589,0 1.565755,4.77214 m -1.455078,-1.88802 -0.53711,-1.77084 -0.530598,1.77084 1.067708,0"
         style=""
         id="path3264" />
      <path
         d="m 63.302083,468.45058 -0.751953,0 0,-3.45704 0.696615,0 0,0.49154 c 0.119356,-0.23003 0.225693,-0.38194 0.31901,-0.45573 0.09548,-0.076 0.205077,-0.11393 0.328776,-0.11393 0.171439,0 0.335285,0.0575 0.491537,0.17253 l -0.234375,0.79752 c -0.1237,-0.0998 -0.240887,-0.14973 -0.351563,-0.14974 -0.104168,1e-5 -0.196399,0.0391 -0.276692,0.11719 -0.07813,0.076 -0.13455,0.21485 -0.169271,0.41667 -0.03472,0.20182 -0.05208,0.57291 -0.05208,1.11328 l 0,1.06771"
         style=""
         id="path3266" />
      <path
         d="m 65.424479,468.45058 -0.751953,0 0,-3.45704 0.696614,0 0,0.49154 c 0.119357,-0.23003 0.225694,-0.38194 0.319011,-0.45573 0.09548,-0.076 0.205076,-0.11393 0.328776,-0.11393 0.171439,0 0.335284,0.0575 0.491536,0.17253 l -0.234375,0.79752 c -0.123699,-0.0998 -0.240887,-0.14973 -0.351562,-0.14974 -0.104168,1e-5 -0.196399,0.0391 -0.276693,0.11719 -0.07813,0.076 -0.13455,0.21485 -0.169271,0.41667 -0.03472,0.20182 -0.05208,0.57291 -0.05208,1.11328 l 0,1.06771"
         style=""
         id="path3268" />
      <path
         d="m 66.651692,466.67323 c 0,-0.33854 0.06727,-0.6467 0.201823,-0.92448 0.134548,-0.27777 0.310329,-0.4861 0.527344,-0.625 0.217013,-0.13888 0.461153,-0.20833 0.732422,-0.20833 0.455727,0 0.813799,0.17904 1.074218,0.53711 0.260414,0.3559 0.390622,0.77257 0.390625,1.25 -3e-6,0.3559 -0.06836,0.67708 -0.205078,0.96354 -0.134551,0.28646 -0.312502,0.50239 -0.533854,0.64779 -0.219186,0.14323 -0.460071,0.21484 -0.722656,0.21484 -0.421008,0 -0.7704,-0.16059 -1.048177,-0.48177 -0.277778,-0.32118 -0.416667,-0.77908 -0.416667,-1.3737 m 0.768229,0.0488 c -10e-7,0.34939 0.06836,0.61415 0.205079,0.79427 0.136717,0.17795 0.301647,0.26693 0.494791,0.26693 0.1888,0 0.350476,-0.0901 0.485026,-0.27018 0.134547,-0.18012 0.201821,-0.44597 0.201823,-0.79753 -2e-6,-0.34288 -0.06836,-0.60438 -0.205078,-0.78451 -0.136721,-0.18011 -0.300566,-0.27017 -0.491536,-0.27018 -0.188804,10e-6 -0.351564,0.0901 -0.488282,0.27018 -0.134549,0.18013 -0.201824,0.4438 -0.201823,0.79102"
         style=""
         id="path3270" />
      <path
         d="m 70.704427,468.45058 -0.898438,-3.45704 0.729167,0 0.530599,2.26563 0.488281,-2.26563 0.722657,0 0.472005,2.26563 0.543619,-2.26563 0.738933,0 -0.911459,3.45704 -0.719401,0 -0.488281,-2.22331 -0.481771,2.22331 -0.725911,0"
         style=""
         id="path3272" />
      <path
         d="m 59.548828,476.78392 0,-4.77214 1.663412,0 c 0.425344,1e-5 0.729164,0.0434 0.911458,0.13021 0.182289,0.0846 0.332028,0.2333 0.449219,0.44597 0.117184,0.2105 0.175777,0.46332 0.175781,0.75846 -4e-6,0.37327 -0.09006,0.67383 -0.270182,0.90169 -0.177955,0.22787 -0.431861,0.3711 -0.761719,0.42969 0.169268,0.12153 0.309242,0.25499 0.419922,0.40039 0.110674,0.14323 0.261498,0.40148 0.452474,0.77474 l 0.47526,0.93099 -0.940755,0 -0.572917,-1.03841 c -0.206165,-0.37543 -0.346139,-0.60981 -0.419922,-0.70313 -0.07379,-0.0955 -0.151911,-0.16059 -0.234374,-0.19531 -0.08247,-0.0369 -0.214846,-0.0553 -0.397136,-0.0553 l -0.16276,0 0,1.99219 -0.787761,0 m 0.787761,-2.75391 0.585937,0 c 0.358071,10e-6 0.585935,-0.0152 0.683594,-0.0456 0.09765,-0.0326 0.176864,-0.0966 0.23763,-0.19206 0.06076,-0.0955 0.09114,-0.22243 0.09115,-0.38086 -3e-6,-0.1519 -0.03039,-0.27343 -0.09115,-0.36458 -0.06077,-0.0933 -0.143232,-0.15733 -0.247396,-0.19206 -0.07379,-0.0239 -0.287545,-0.0358 -0.641276,-0.0358 l -0.618489,0 0,1.21093"
         style=""
         id="path3274" />
      <path
         d="m 63.48763,472.85814 0,-0.84636 0.751953,0 0,0.84636 -0.751953,0 m 0,3.92578 0,-3.45703 0.751953,0 0,3.45703 -0.751953,0"
         style=""
         id="path3276" />
      <path
         d="m 64.939453,477.01178 0.859375,0.12696 c 0.01302,0.12586 0.05208,0.21484 0.117188,0.26692 0.06727,0.0543 0.172524,0.0814 0.315755,0.0814 0.164929,0 0.298392,-0.0271 0.400391,-0.0814 0.07161,-0.0391 0.126951,-0.10416 0.166015,-0.19531 0.03906,-0.0911 0.05859,-0.25173 0.05859,-0.48177 l 0,-0.50456 c -0.112849,0.18664 -0.239802,0.32661 -0.380859,0.41993 -0.141061,0.0933 -0.297311,0.13997 -0.46875,0.13997 -0.314672,0 -0.579428,-0.14214 -0.794271,-0.42643 -0.247396,-0.32552 -0.371094,-0.76606 -0.371094,-1.32162 0,-0.59027 0.116102,-1.03515 0.348307,-1.33463 0.234375,-0.30165 0.517577,-0.45247 0.84961,-0.45248 0.175779,10e-6 0.335284,0.0467 0.478515,0.13998 0.145398,0.0933 0.274521,0.23438 0.38737,0.42317 l 0,-0.48502 0.703125,0 0,3.10221 c -3e-6,0.49696 -0.04558,0.85721 -0.136719,1.08073 -0.09115,0.22352 -0.232207,0.39171 -0.423177,0.50456 -0.188804,0.11501 -0.451391,0.17252 -0.78776,0.17252 -0.310331,0 -0.558812,-0.0412 -0.745443,-0.12369 -0.186633,-0.0825 -0.329862,-0.20617 -0.429687,-0.3711 -0.09766,-0.16276 -0.146485,-0.35156 -0.146485,-0.5664 l 0,-0.11394 m 0.670573,-2.02799 c -1e-6,0.36892 0.05859,0.63802 0.175781,0.80729 0.119357,0.16927 0.262586,0.25391 0.429688,0.25391 0.18012,0 0.334199,-0.0857 0.462239,-0.25716 0.128036,-0.17144 0.192056,-0.43186 0.192058,-0.78125 -2e-6,-0.36025 -0.06185,-0.62609 -0.185547,-0.79753 -0.12153,-0.17361 -0.272354,-0.26041 -0.452474,-0.26042 -0.177953,1e-5 -0.326607,0.0846 -0.445964,0.25391 -0.117188,0.16927 -0.175782,0.42969 -0.175781,0.78125"
         style=""
         id="path3278" />
      <path
         d="m 69.106119,472.01178 0,1.75456 c 0.119357,-0.17361 0.25065,-0.30273 0.39388,-0.38737 0.145398,-0.0868 0.302733,-0.1302 0.472006,-0.13021 0.225692,10e-6 0.414494,0.0597 0.566406,0.17904 0.151907,0.11936 0.260414,0.28863 0.325521,0.50781 0.04774,0.1606 0.07161,0.43403 0.07161,0.82031 l 0,2.028 -0.748698,0 0,-1.82617 c -2e-6,-0.42318 -0.02713,-0.68793 -0.08138,-0.79427 -0.07596,-0.14323 -0.20508,-0.21484 -0.38737,-0.21485 -0.193143,1e-5 -0.343968,0.0781 -0.452474,0.23438 -0.106337,0.15408 -0.159506,0.44379 -0.159505,0.86914 l 0,1.73177 -0.751953,0 0,-4.77214 0.751953,0"
         style=""
         id="path3280" />
      <path
         d="m 72.999349,473.32689 0,0.72917 -0.511068,0 0,1.39322 c -10e-7,0.30165 0.0076,0.47635 0.02279,0.52409 0.03038,0.0868 0.09223,0.13021 0.185546,0.13021 0.06944,0 0.16927,-0.0293 0.29948,-0.0879 l 0.0651,0.70964 c -0.173613,0.0911 -0.37001,0.13671 -0.589193,0.13671 -0.190973,0 -0.343968,-0.0456 -0.458984,-0.13671 -0.115018,-0.0911 -0.192058,-0.22244 -0.23112,-0.39388 -0.03038,-0.12587 -0.04557,-0.38195 -0.04557,-0.76823 l 0,-1.50716 -0.345052,0 0,-0.72917 0.345052,0 0,-0.68685 0.751953,-0.53385 0,1.2207 0.511068,0"
         style=""
         id="path3282" />
    </g>
  </g>
</svg>
