<svg xmlns="http://www.w3.org/2000/svg"
     xmlns:xlink="http://www.w3.org/1999/xlink"
     width="100%" height="100%" viewBox="-2 -2 184 244">

  <title>ISO/IEC 9995-8:2006, Allocation of letters to the keys of a numeric keypad</title>
  <desc>A graphical depiction of an ISO standard defining layouts of numeric keypads, with distribution of letters on the keys.</desc>
  
  <style type="text/css"><![CDATA[
    .key
    {
      fill: #f5f5f5;
      stroke: #000000;
    }

    .key text
    {
      fill: #000000;
      stroke: none;
    }
  ]]></style>
  
 
   
  <rect id="keyboard" x="0" y="0" width="180" height="240" fill="#222222" stroke="black" />
  <g class="key" font-family="'New Century Schoolbook', Palatino, Times, Courier, Helvetica, 'Cordia New', Ayuthaya, Tahoma, 'Arial Unicode MS', sans-serif" text-anchor="middle" font-size="15">
    <g class="key" transform="translate(0, 0)">
    	<rect x="1" y="1" width="58" height="58" rx="6" ry="6"/>
    	<text class="mid" x="30" y="35">1</text>
    </g>
    <g class="key" transform="translate(60, 0)">
    	<rect x="1" y="1" width="58" height="58" rx="6" ry="6"/>
    	<text class="mid" x="30" y="35">2</text>
    	<text class="mid" x="30" y="18"><tspan>A</tspan><tspan>B</tspan><tspan>C</tspan></text>
    </g>
    <g class="key" transform="translate(120, 0)">
    	<rect x="1" y="1" width="58" height="58" rx="6" ry="6"/>
    	<text class="mid" x="30" y="35">3</text>
    	<text class="mid" x="30" y="18"><tspan>D</tspan><tspan>E</tspan><tspan>F</tspan></text>
    </g>

    <g class="key" transform="translate(0, 60)">
    	<rect x="1" y="1" width="58" height="58" rx="6" ry="6"/>
    	<text class="mid" x="30" y="35">4</text>
    	<text class="mid" x="30" y="18"><tspan>G</tspan><tspan>H</tspan><tspan>I</tspan></text>
    </g>
    <g class="key" transform="translate(60, 60)">
    	<rect x="1" y="1" width="58" height="58" rx="6" ry="6"/>
    	<text class="mid" x="30" y="35">5</text>
    	<text class="mid" x="30" y="18"><tspan>J</tspan><tspan>K</tspan><tspan>L</tspan></text>
    </g>
    <g class="key" transform="translate(120, 60)">
    	<rect x="1" y="1" width="58" height="58" rx="6" ry="6"/>
    	<text class="mid" x="30" y="35">6</text>
    	<text class="mid" x="30" y="18"><tspan>M</tspan><tspan>N</tspan><tspan>O</tspan></text>
    </g>

    <g class="key" transform="translate(0, 120)">
    	<rect x="1" y="1" width="58" height="58" rx="6" ry="6"/>
    	<text class="mid" x="30" y="35">7</text>
    	<text class="mid" x="30" y="18"><tspan>P</tspan><tspan>Q</tspan><tspan>R</tspan><tspan>S</tspan></text>
    </g>
    <g class="key" transform="translate(60, 120)">
    	<rect x="1" y="1" width="58" height="58" rx="6" ry="6"/>
    	<text class="mid" x="30" y="35">8</text>
    	<text class="mid" x="30" y="18"><tspan>T</tspan><tspan>U</tspan><tspan>V</tspan></text>
    </g>
    <g class="key" transform="translate(120, 120)">
    	<rect x="1" y="1" width="58" height="58" rx="6" ry="6"/>
    	<text class="mid" x="30" y="35">9</text>
    	<text class="mid" x="30" y="18"><tspan>W</tspan><tspan>X</tspan><tspan>Y</tspan><tspan>Z</tspan></text>
    </g>

    <g class="key" transform="translate(0, 180)">
    	<rect x="1" y="1" width="58" height="58" rx="6" ry="6"/>
    	<text class="mid" x="30" y="35">*</text>
    </g>
    <g class="key" transform="translate(60, 180)">
    	<rect x="1" y="1" width="58" height="58" rx="6" ry="6"/>
    	<text class="mid" x="30" y="35">0</text>
    </g>
    <g class="key" transform="translate(120, 180)">
    	<rect x="1" y="1" width="58" height="58" rx="6" ry="6"/>
    	<text class="mid" x="30" y="35">#</text>
    </g>
  </g>
</svg>
